<?xml version="1.0" encoding="utf-8"?>
<!-- Generator: Adobe Illustrator 16.0.0, SVG Export Plug-In . SVG Version: 6.00 Build 0)  -->
<!DOCTYPE svg PUBLIC "-//W3C//DTD SVG 1.1//EN" "http://www.w3.org/Graphics/SVG/1.1/DTD/svg11.dtd">
<svg version="1.1" id="Layer_1" xmlns="http://www.w3.org/2000/svg" xmlns:xlink="http://www.w3.org/1999/xlink" x="0px" y="0px"
	 width="192.597px" height="43.416px" viewBox="0 0 192.597 43.416" enable-background="new 0 0 192.597 43.416"
	 xml:space="preserve">
<g>
	<path fill="#FFFFFF" d="M74.736,35.568c0,2.592-0.684,4.548-2.052,5.868c-1.368,1.321-3.132,1.98-5.292,1.98h-5.616
		c-0.961,0-1.789-0.072-2.484-0.216c-0.696-0.144-1.296-0.372-1.8-0.684c-0.504-0.312-0.96-0.708-1.368-1.188
		c-0.409-0.479-0.781-1.055-1.116-1.728L41.904,16.128v19.44c0,2.592-0.684,4.548-2.052,5.868c-1.368,1.321-3.132,1.98-5.292,1.98
		h-5.688c-1.92,0-3.337-0.299-4.248-0.9c-0.913-0.6-1.728-1.572-2.448-2.916L0,0h7.776l19.08,33.984
		c0.527,0.961,1.152,1.44,1.872,1.44c1.248,0,1.872-0.815,1.872-2.448V0h10.08l19.08,33.984c0.528,0.961,1.152,1.44,1.872,1.44
		c1.248,0,1.872-0.815,1.872-2.448V0h11.232V35.568z"/>
	<path fill="#FFFFFF" d="M124.416,43.416h-31.68c-2.016,0-3.744-0.216-5.184-0.648s-2.604-1.152-3.492-2.16
		c-0.889-1.008-1.548-2.34-1.98-3.996c-0.432-1.656-0.648-3.731-0.648-6.228V25.92c0-2.448,0.204-4.5,0.612-6.156
		c0.407-1.656,1.055-2.988,1.944-3.996c0.888-1.008,2.052-1.728,3.492-2.16s3.191-0.648,5.256-0.648h20.304v-2.016
		c0-2.927-1.321-4.392-3.96-4.392h-26.28V0h30.384c2.063,0,3.804,0.216,5.22,0.648c1.416,0.432,2.567,1.152,3.456,2.16
		c0.888,1.008,1.536,2.34,1.944,3.996c0.408,1.656,0.612,3.708,0.612,6.156V43.416z M113.04,36.864V19.512H96.551
		c-2.544,0-3.816,1.224-3.816,3.672v10.44c0,2.16,1.248,3.24,3.744,3.24H113.04z"/>
	<path fill="#FFFFFF" d="M142.918,43.416h-11.304V0h11.304V43.416z"/>
	<path fill="#FFFFFF" d="M192.597,43.416h-31.68c-2.016,0-3.744-0.216-5.184-0.648s-2.604-1.152-3.492-2.16
		c-0.889-1.008-1.548-2.34-1.98-3.996c-0.432-1.656-0.648-3.731-0.648-6.228V25.92c0-2.448,0.204-4.5,0.612-6.156
		c0.407-1.656,1.055-2.988,1.944-3.996c0.888-1.008,2.052-1.728,3.492-2.16s3.191-0.648,5.255-0.648h20.305v-2.016
		c0-2.927-1.322-4.392-3.961-4.392h-26.279V0h30.383c2.064,0,3.805,0.216,5.221,0.648s2.566,1.152,3.457,2.16
		c0.887,1.008,1.535,2.34,1.943,3.996c0.406,1.656,0.611,3.708,0.611,6.156V43.416z M181.222,36.864V19.512h-16.488
		c-2.545,0-3.816,1.224-3.816,3.672v10.44c0,2.16,1.248,3.24,3.744,3.24H181.222z"/>
</g>
</svg>
